<mxfile host="app.diagrams.net" agent="Mozilla/5.0 (X11; Ubuntu; Linux x86_64; rv:88.0) Gecko/20100101 Firefox/88.0" version="24.7.17">
  <diagram name="Page-1" id="edf60f1a-56cd-e834-aa8a-f176f3a09ee4">
    <mxGraphModel dx="651" dy="1481" grid="1" gridSize="10" guides="1" tooltips="1" connect="1" arrows="1" fold="1" page="1" pageScale="1" pageWidth="1100" pageHeight="850" background="none" math="0" shadow="0">
      <root>
        <mxCell id="0" />
        <mxCell id="1" parent="0" />
        <mxCell id="zbRwKE0J8DimQGEXAM3f-1" value="&lt;div&gt;Estado 0&lt;/div&gt;&lt;div&gt;Robot quieto&lt;br&gt;&lt;/div&gt;" style="ellipse;whiteSpace=wrap;html=1;aspect=fixed;" parent="1" vertex="1">
          <mxGeometry x="220" y="80" width="80" height="80" as="geometry" />
        </mxCell>
        <mxCell id="zbRwKE0J8DimQGEXAM3f-2" value="&lt;div&gt;Estado 1&lt;/div&gt;&lt;div&gt;Detector &lt;br&gt;&lt;/div&gt;&lt;div&gt;paredes&lt;br&gt;&lt;/div&gt;" style="ellipse;whiteSpace=wrap;html=1;aspect=fixed;" parent="1" vertex="1">
          <mxGeometry x="420" y="80" width="80" height="80" as="geometry" />
        </mxCell>
        <mxCell id="zbRwKE0J8DimQGEXAM3f-3" value="&lt;div&gt;Estado 2&lt;/div&gt;&lt;div&gt;Sigo paredes&lt;br&gt;&lt;/div&gt;" style="ellipse;whiteSpace=wrap;html=1;aspect=fixed;" parent="1" vertex="1">
          <mxGeometry x="320" y="240" width="80" height="80" as="geometry" />
        </mxCell>
        <mxCell id="zbRwKE0J8DimQGEXAM3f-7" value="" style="curved=1;endArrow=classic;html=1;rounded=0;entryX=0;entryY=0;entryDx=0;entryDy=0;" parent="1" target="zbRwKE0J8DimQGEXAM3f-1" edge="1">
          <mxGeometry width="50" height="50" relative="1" as="geometry">
            <mxPoint x="220" y="130" as="sourcePoint" />
            <mxPoint x="270" y="80" as="targetPoint" />
            <Array as="points">
              <mxPoint x="160" y="110" />
              <mxPoint x="220" y="80" />
              <mxPoint x="230" y="90" />
            </Array>
          </mxGeometry>
        </mxCell>
        <mxCell id="zbRwKE0J8DimQGEXAM3f-8" value="&lt;div&gt;Todas las distancias&lt;/div&gt;&lt;div&gt;son pequeÃ±as. &lt;br&gt;&lt;/div&gt;&lt;div&gt;MaxDistances&amp;lt;1&lt;br&gt;&lt;/div&gt;&lt;div&gt;(Robot acorralado)&lt;br&gt;&lt;/div&gt;" style="text;html=1;align=center;verticalAlign=middle;resizable=0;points=[];autosize=1;strokeColor=none;fillColor=none;" parent="1" vertex="1">
          <mxGeometry x="40" y="80" width="130" height="70" as="geometry" />
        </mxCell>
        <mxCell id="zbRwKE0J8DimQGEXAM3f-9" value="" style="endArrow=classic;html=1;rounded=0;exitX=1;exitY=0.5;exitDx=0;exitDy=0;entryX=0;entryY=0.5;entryDx=0;entryDy=0;" parent="1" source="zbRwKE0J8DimQGEXAM3f-1" target="zbRwKE0J8DimQGEXAM3f-2" edge="1">
          <mxGeometry width="50" height="50" relative="1" as="geometry">
            <mxPoint x="380" y="300" as="sourcePoint" />
            <mxPoint x="430" y="250" as="targetPoint" />
          </mxGeometry>
        </mxCell>
        <mxCell id="zbRwKE0J8DimQGEXAM3f-10" value="Alguna distancia &amp;gt;1" style="text;html=1;align=center;verticalAlign=middle;resizable=0;points=[];autosize=1;strokeColor=none;fillColor=none;" parent="1" vertex="1">
          <mxGeometry x="300" y="85" width="130" height="30" as="geometry" />
        </mxCell>
        <mxCell id="zbRwKE0J8DimQGEXAM3f-12" value="" style="curved=1;endArrow=classic;html=1;rounded=0;exitX=0.025;exitY=0.763;exitDx=0;exitDy=0;exitPerimeter=0;entryX=1.025;entryY=0.688;entryDx=0;entryDy=0;entryPerimeter=0;" parent="1" source="zbRwKE0J8DimQGEXAM3f-2" target="zbRwKE0J8DimQGEXAM3f-1" edge="1">
          <mxGeometry width="50" height="50" relative="1" as="geometry">
            <mxPoint x="410" y="150" as="sourcePoint" />
            <mxPoint x="430" y="190" as="targetPoint" />
            <Array as="points">
              <mxPoint x="380" y="160" />
              <mxPoint x="350" y="160" />
            </Array>
          </mxGeometry>
        </mxCell>
        <mxCell id="zbRwKE0J8DimQGEXAM3f-13" value="&lt;div&gt;No hay pared &lt;br&gt;&lt;/div&gt;&lt;div&gt;MinDistance=INF&lt;br&gt;&lt;/div&gt;" style="text;html=1;align=center;verticalAlign=middle;resizable=0;points=[];autosize=1;strokeColor=none;fillColor=none;" parent="1" vertex="1">
          <mxGeometry x="270" y="150" width="120" height="40" as="geometry" />
        </mxCell>
        <mxCell id="zbRwKE0J8DimQGEXAM3f-15" value="" style="curved=1;endArrow=classic;html=1;rounded=0;entryX=0.5;entryY=0;entryDx=0;entryDy=0;" parent="1" target="zbRwKE0J8DimQGEXAM3f-3" edge="1">
          <mxGeometry width="50" height="50" relative="1" as="geometry">
            <mxPoint x="470" y="160" as="sourcePoint" />
            <mxPoint x="520" y="110" as="targetPoint" />
            <Array as="points">
              <mxPoint x="440" y="180" />
              <mxPoint x="360" y="200" />
            </Array>
          </mxGeometry>
        </mxCell>
        <mxCell id="zbRwKE0J8DimQGEXAM3f-17" value="Hay Pared" style="text;html=1;align=center;verticalAlign=middle;resizable=0;points=[];autosize=1;strokeColor=none;fillColor=none;" parent="1" vertex="1">
          <mxGeometry x="370" y="200" width="80" height="30" as="geometry" />
        </mxCell>
        <mxCell id="zbRwKE0J8DimQGEXAM3f-20" value="" style="curved=1;endArrow=classic;html=1;rounded=0;entryX=0;entryY=1;entryDx=0;entryDy=0;exitX=0;exitY=1;exitDx=0;exitDy=0;" parent="1" source="zbRwKE0J8DimQGEXAM3f-3" target="zbRwKE0J8DimQGEXAM3f-1" edge="1">
          <mxGeometry width="50" height="50" relative="1" as="geometry">
            <mxPoint x="350" y="330" as="sourcePoint" />
            <mxPoint x="400" y="280" as="targetPoint" />
            <Array as="points">
              <mxPoint x="240" y="270" />
              <mxPoint x="210" y="240" />
              <mxPoint x="210" y="180" />
            </Array>
          </mxGeometry>
        </mxCell>
        <mxCell id="zbRwKE0J8DimQGEXAM3f-21" value="Llego a la meta" style="text;html=1;align=center;verticalAlign=middle;resizable=0;points=[];autosize=1;strokeColor=none;fillColor=none;" parent="1" vertex="1">
          <mxGeometry x="100" y="220" width="110" height="30" as="geometry" />
        </mxCell>
        <mxCell id="zbRwKE0J8DimQGEXAM3f-22" value="" style="curved=1;endArrow=classic;html=1;rounded=0;exitX=1;exitY=1;exitDx=0;exitDy=0;" parent="1" source="zbRwKE0J8DimQGEXAM3f-3" target="zbRwKE0J8DimQGEXAM3f-3" edge="1">
          <mxGeometry width="50" height="50" relative="1" as="geometry">
            <mxPoint x="360" y="430" as="sourcePoint" />
            <mxPoint x="410" y="380" as="targetPoint" />
            <Array as="points">
              <mxPoint x="380" y="390" />
              <mxPoint x="340" y="380" />
            </Array>
          </mxGeometry>
        </mxCell>
        <mxCell id="zbRwKE0J8DimQGEXAM3f-23" value="No llego a la meta" style="text;html=1;align=center;verticalAlign=middle;resizable=0;points=[];autosize=1;strokeColor=none;fillColor=none;" parent="1" vertex="1">
          <mxGeometry x="305" y="390" width="120" height="30" as="geometry" />
        </mxCell>
        <mxCell id="zbRwKE0J8DimQGEXAM3f-24" value="Chequeo de distancias" style="text;html=1;align=center;verticalAlign=middle;resizable=0;points=[];autosize=1;strokeColor=none;fillColor=none;" parent="1" vertex="1">
          <mxGeometry x="200" y="50" width="150" height="30" as="geometry" />
        </mxCell>
        <mxCell id="zbRwKE0J8DimQGEXAM3f-25" value="" style="ellipse;whiteSpace=wrap;html=1;aspect=fixed;" parent="1" vertex="1">
          <mxGeometry x="472.5" y="-380" width="595" height="595" as="geometry" />
        </mxCell>
        <mxCell id="zbRwKE0J8DimQGEXAM3f-26" value="" style="endArrow=none;html=1;rounded=0;exitX=1;exitY=1;exitDx=0;exitDy=0;entryX=0.382;entryY=0.993;entryDx=0;entryDy=0;entryPerimeter=0;" parent="1" source="zbRwKE0J8DimQGEXAM3f-2" target="zbRwKE0J8DimQGEXAM3f-25" edge="1">
          <mxGeometry width="50" height="50" relative="1" as="geometry">
            <mxPoint x="590" y="150" as="sourcePoint" />
            <mxPoint x="640" y="100" as="targetPoint" />
          </mxGeometry>
        </mxCell>
        <mxCell id="zbRwKE0J8DimQGEXAM3f-28" value="Estado 1" style="text;html=1;align=center;verticalAlign=middle;whiteSpace=wrap;rounded=0;" parent="1" vertex="1">
          <mxGeometry x="660" y="-490" width="60" height="30" as="geometry" />
        </mxCell>
        <mxCell id="zbRwKE0J8DimQGEXAM3f-29" value="Estado 1.0" style="ellipse;whiteSpace=wrap;html=1;aspect=fixed;" parent="1" vertex="1">
          <mxGeometry x="730" y="-310" width="80" height="80" as="geometry" />
        </mxCell>
        <mxCell id="zbRwKE0J8DimQGEXAM3f-30" value="" style="ellipse;whiteSpace=wrap;html=1;aspect=fixed;" parent="1" vertex="1">
          <mxGeometry x="472.5" y="210" width="590" height="590" as="geometry" />
        </mxCell>
        <mxCell id="zbRwKE0J8DimQGEXAM3f-31" value="" style="endArrow=none;html=1;rounded=0;exitX=0.725;exitY=0.075;exitDx=0;exitDy=0;exitPerimeter=0;entryX=0.523;entryY=-0.005;entryDx=0;entryDy=0;entryPerimeter=0;" parent="1" target="zbRwKE0J8DimQGEXAM3f-30" edge="1">
          <mxGeometry width="50" height="50" relative="1" as="geometry">
            <mxPoint x="370" y="240" as="sourcePoint" />
            <mxPoint x="793.2" y="288" as="targetPoint" />
          </mxGeometry>
        </mxCell>
        <mxCell id="zbRwKE0J8DimQGEXAM3f-32" value="" style="endArrow=none;html=1;rounded=0;entryX=0;entryY=1;entryDx=0;entryDy=0;" parent="1" source="zbRwKE0J8DimQGEXAM3f-3" target="zbRwKE0J8DimQGEXAM3f-30" edge="1">
          <mxGeometry width="50" height="50" relative="1" as="geometry">
            <mxPoint x="500" y="410" as="sourcePoint" />
            <mxPoint x="550" y="360" as="targetPoint" />
          </mxGeometry>
        </mxCell>
        <mxCell id="zbRwKE0J8DimQGEXAM3f-33" value="&lt;div&gt;Estado 2.0&lt;/div&gt;Muevo recto" style="ellipse;whiteSpace=wrap;html=1;aspect=fixed;" parent="1" vertex="1">
          <mxGeometry x="720" y="260" width="80" height="80" as="geometry" />
        </mxCell>
        <mxCell id="zbRwKE0J8DimQGEXAM3f-34" value="BÃºsqueda inicial" style="text;html=1;align=center;verticalAlign=middle;whiteSpace=wrap;rounded=0;" parent="1" vertex="1">
          <mxGeometry x="740" y="-230" width="60" height="30" as="geometry" />
        </mxCell>
        <mxCell id="zbRwKE0J8DimQGEXAM3f-35" value="&lt;div&gt;Estado 1.1&lt;/div&gt;&lt;div&gt;Gira a la Izq&lt;br&gt;&lt;/div&gt;" style="ellipse;whiteSpace=wrap;html=1;aspect=fixed;" parent="1" vertex="1">
          <mxGeometry x="630" y="-180" width="80" height="80" as="geometry" />
        </mxCell>
        <mxCell id="zbRwKE0J8DimQGEXAM3f-36" value="&lt;div&gt;Estado 1.2&lt;/div&gt;&lt;div&gt;Gira a la Der&lt;br&gt;&lt;/div&gt;" style="ellipse;whiteSpace=wrap;html=1;aspect=fixed;" parent="1" vertex="1">
          <mxGeometry x="840" y="-180" width="80" height="80" as="geometry" />
        </mxCell>
        <mxCell id="zbRwKE0J8DimQGEXAM3f-37" value="" style="curved=1;endArrow=classic;html=1;rounded=0;exitX=0;exitY=0;exitDx=0;exitDy=0;" parent="1" source="zbRwKE0J8DimQGEXAM3f-29" edge="1">
          <mxGeometry width="50" height="50" relative="1" as="geometry">
            <mxPoint x="580" y="-90" as="sourcePoint" />
            <mxPoint x="630" y="-140" as="targetPoint" />
            <Array as="points">
              <mxPoint x="640" y="-260" />
              <mxPoint x="590" y="-170" />
            </Array>
          </mxGeometry>
        </mxCell>
        <mxCell id="zbRwKE0J8DimQGEXAM3f-38" value="" style="curved=1;endArrow=classic;html=1;rounded=0;exitX=1;exitY=0;exitDx=0;exitDy=0;entryX=0.9;entryY=0.288;entryDx=0;entryDy=0;entryPerimeter=0;" parent="1" source="zbRwKE0J8DimQGEXAM3f-29" target="zbRwKE0J8DimQGEXAM3f-36" edge="1">
          <mxGeometry width="50" height="50" relative="1" as="geometry">
            <mxPoint x="870" y="-100" as="sourcePoint" />
            <mxPoint x="920" y="-150" as="targetPoint" />
            <Array as="points">
              <mxPoint x="960" y="-230" />
            </Array>
          </mxGeometry>
        </mxCell>
        <mxCell id="zbRwKE0J8DimQGEXAM3f-39" value="DistIzq&amp;lt;DistDer" style="text;html=1;align=center;verticalAlign=middle;whiteSpace=wrap;rounded=0;" parent="1" vertex="1">
          <mxGeometry x="550" y="-250" width="60" height="30" as="geometry" />
        </mxCell>
        <mxCell id="zbRwKE0J8DimQGEXAM3f-41" value="" style="endArrow=none;html=1;rounded=0;entryX=0.019;entryY=0.371;entryDx=0;entryDy=0;entryPerimeter=0;exitX=0.375;exitY=0;exitDx=0;exitDy=0;exitPerimeter=0;" parent="1" source="zbRwKE0J8DimQGEXAM3f-2" target="zbRwKE0J8DimQGEXAM3f-25" edge="1">
          <mxGeometry width="50" height="50" relative="1" as="geometry">
            <mxPoint x="420" y="90" as="sourcePoint" />
            <mxPoint x="470" y="40" as="targetPoint" />
          </mxGeometry>
        </mxCell>
        <mxCell id="b7r7_21MIXKtXcPFjTkh-1" value="DisDer&amp;lt;DistIzq" style="text;html=1;align=center;verticalAlign=middle;whiteSpace=wrap;rounded=0;" vertex="1" parent="1">
          <mxGeometry x="940" y="-210" width="60" height="30" as="geometry" />
        </mxCell>
        <mxCell id="b7r7_21MIXKtXcPFjTkh-3" value="Escogemos la pared de la IZQ" style="text;html=1;align=center;verticalAlign=middle;whiteSpace=wrap;rounded=0;" vertex="1" parent="1">
          <mxGeometry x="560" y="-97" width="170" height="30" as="geometry" />
        </mxCell>
        <mxCell id="b7r7_21MIXKtXcPFjTkh-4" value="Escogemos la pared de la Der" style="text;html=1;align=center;verticalAlign=middle;whiteSpace=wrap;rounded=0;" vertex="1" parent="1">
          <mxGeometry x="790" y="-100" width="170" height="30" as="geometry" />
        </mxCell>
        <mxCell id="b7r7_21MIXKtXcPFjTkh-5" value="Sigo a una pared" style="text;html=1;align=center;verticalAlign=middle;whiteSpace=wrap;rounded=0;" vertex="1" parent="1">
          <mxGeometry x="730" y="340" width="60" height="30" as="geometry" />
        </mxCell>
        <mxCell id="b7r7_21MIXKtXcPFjTkh-7" value="&lt;div&gt;Estado 2.1&lt;/div&gt;&lt;div&gt;Giro hacia la pared&lt;/div&gt;&lt;div&gt;&lt;br&gt;&lt;/div&gt;" style="ellipse;whiteSpace=wrap;html=1;aspect=fixed;" vertex="1" parent="1">
          <mxGeometry x="610" y="365" width="80" height="80" as="geometry" />
        </mxCell>
        <mxCell id="b7r7_21MIXKtXcPFjTkh-8" value="" style="curved=1;endArrow=classic;html=1;rounded=0;entryX=0;entryY=0;entryDx=0;entryDy=0;" edge="1" parent="1" target="b7r7_21MIXKtXcPFjTkh-7">
          <mxGeometry width="50" height="50" relative="1" as="geometry">
            <mxPoint x="710" y="300" as="sourcePoint" />
            <mxPoint x="760" y="250" as="targetPoint" />
            <Array as="points">
              <mxPoint x="760" y="300" />
              <mxPoint x="650" y="300" />
            </Array>
          </mxGeometry>
        </mxCell>
        <mxCell id="b7r7_21MIXKtXcPFjTkh-10" value="&lt;div&gt;Estado 2.2&lt;/div&gt;&lt;div&gt;Me acerco a la pared&lt;br&gt;&lt;/div&gt;" style="ellipse;whiteSpace=wrap;html=1;aspect=fixed;" vertex="1" parent="1">
          <mxGeometry x="700" y="445" width="80" height="80" as="geometry" />
        </mxCell>
        <mxCell id="b7r7_21MIXKtXcPFjTkh-11" value="DistPared&amp;gt;1" style="text;html=1;align=center;verticalAlign=middle;whiteSpace=wrap;rounded=0;rotation=-45;" vertex="1" parent="1">
          <mxGeometry x="560" y="296.25" width="130" height="40" as="geometry" />
        </mxCell>
        <mxCell id="b7r7_21MIXKtXcPFjTkh-12" value="" style="curved=1;endArrow=classic;html=1;rounded=0;exitX=0;exitY=1;exitDx=0;exitDy=0;" edge="1" parent="1" source="b7r7_21MIXKtXcPFjTkh-7">
          <mxGeometry width="50" height="50" relative="1" as="geometry">
            <mxPoint x="650" y="530" as="sourcePoint" />
            <mxPoint x="700" y="480" as="targetPoint" />
            <Array as="points">
              <mxPoint x="660" y="470" />
              <mxPoint x="680" y="470" />
            </Array>
          </mxGeometry>
        </mxCell>
        <mxCell id="b7r7_21MIXKtXcPFjTkh-13" value="Orientacion Pared" style="text;html=1;align=center;verticalAlign=middle;whiteSpace=wrap;rounded=0;" vertex="1" parent="1">
          <mxGeometry x="600" y="470" width="60" height="30" as="geometry" />
        </mxCell>
        <mxCell id="b7r7_21MIXKtXcPFjTkh-14" value="Escogemos la pared mÃ¡s cercana para hacer el seguimiento" style="text;html=1;align=center;verticalAlign=middle;whiteSpace=wrap;rounded=0;" vertex="1" parent="1">
          <mxGeometry x="590" y="30" width="290" height="30" as="geometry" />
        </mxCell>
        <mxCell id="b7r7_21MIXKtXcPFjTkh-15" value="DistPared&amp;lt;=1" style="text;html=1;align=center;verticalAlign=middle;whiteSpace=wrap;rounded=0;rotation=0;" vertex="1" parent="1">
          <mxGeometry x="760" y="470" width="130" height="40" as="geometry" />
        </mxCell>
        <mxCell id="b7r7_21MIXKtXcPFjTkh-17" value="&lt;div&gt;&lt;span style=&quot;white-space: pre;&quot;&gt;&lt;/span&gt;Estado 2.3&lt;/div&gt;&lt;div&gt;oriento para seguir la pared&lt;br&gt;&lt;/div&gt;" style="ellipse;whiteSpace=wrap;html=1;aspect=fixed;" vertex="1" parent="1">
          <mxGeometry x="810" y="385" width="80" height="80" as="geometry" />
        </mxCell>
        <mxCell id="b7r7_21MIXKtXcPFjTkh-18" value="" style="curved=1;endArrow=classic;html=1;rounded=0;" edge="1" parent="1">
          <mxGeometry width="50" height="50" relative="1" as="geometry">
            <mxPoint x="780" y="490" as="sourcePoint" />
            <mxPoint x="810" y="440" as="targetPoint" />
            <Array as="points">
              <mxPoint x="800" y="470" />
              <mxPoint x="800" y="450" />
            </Array>
          </mxGeometry>
        </mxCell>
        <mxCell id="b7r7_21MIXKtXcPFjTkh-19" value="" style="curved=1;endArrow=classic;html=1;rounded=0;entryX=1;entryY=0.5;entryDx=0;entryDy=0;" edge="1" parent="1" target="zbRwKE0J8DimQGEXAM3f-33">
          <mxGeometry width="50" height="50" relative="1" as="geometry">
            <mxPoint x="850" y="390" as="sourcePoint" />
            <mxPoint x="900" y="340" as="targetPoint" />
            <Array as="points">
              <mxPoint x="840" y="340" />
              <mxPoint x="850" y="340" />
            </Array>
          </mxGeometry>
        </mxCell>
        <mxCell id="b7r7_21MIXKtXcPFjTkh-22" value="Orientacion correcta" style="text;html=1;align=center;verticalAlign=middle;whiteSpace=wrap;rounded=0;" vertex="1" parent="1">
          <mxGeometry x="840" y="335" width="60" height="30" as="geometry" />
        </mxCell>
        <mxCell id="b7r7_21MIXKtXcPFjTkh-23" value="DistPared&amp;lt;=1" style="text;html=1;align=center;verticalAlign=middle;whiteSpace=wrap;rounded=0;rotation=0;" vertex="1" parent="1">
          <mxGeometry x="760" y="230" width="130" height="40" as="geometry" />
        </mxCell>
        <mxCell id="b7r7_21MIXKtXcPFjTkh-24" value="" style="curved=1;endArrow=classic;html=1;rounded=0;entryX=0;entryY=0.75;entryDx=0;entryDy=0;exitX=0.375;exitY=0.063;exitDx=0;exitDy=0;exitPerimeter=0;" edge="1" parent="1" source="zbRwKE0J8DimQGEXAM3f-33" target="b7r7_21MIXKtXcPFjTkh-23">
          <mxGeometry width="50" height="50" relative="1" as="geometry">
            <mxPoint x="730" y="270" as="sourcePoint" />
            <mxPoint x="780" y="220" as="targetPoint" />
            <Array as="points">
              <mxPoint x="720" y="230" />
              <mxPoint x="770" y="210" />
            </Array>
          </mxGeometry>
        </mxCell>
      </root>
    </mxGraphModel>
  </diagram>
</mxfile>
